<svg id="color_outline" height="512" viewBox="0 0 64 64" width="512" xmlns="http://www.w3.org/2000/svg"><path d="m63 36v25c0 1.1-.9 2-2 2h-58c-1.1 0-2-.9-2-2v-25z" fill="#a67c52"/><path d="m63 36v25c0 1.1-.9 2-2 2h-58c-1.1 0-2-.9-2-2v-4.19h54.98c1.1 0 2-.9 2-2v-18.81z" fill="#8c6239"/><path d="m42 59h-20c-1.657 0-3-1.343-3-3v-12c0-1.657 1.343-3 3-3h20c1.657 0 3 1.343 3 3v12c0 1.657-1.343 3-3 3z" fill="#ffd15d"/><path d="m23 54v-8c0-.552.448-1 1-1h16c.552 0 1 .448 1 1v8c0 .552-.448 1-1 1h-16c-.552 0-1-.448-1-1z" fill="#f8f4e8"/><path d="m55.23 15.68.77 2.32-1 2h-6l-1-2 .77-2.32c.14-.4.52-.68.95-.68h4.56c.43 0 .81.28.95.68z" fill="#ffd15d"/><path d="m56 18-1 2h-3.04l1-2-.77-2.32c-.14-.4-.52-.68-.95-.68h3.04c.43 0 .81.28.95.68z" fill="#ffb000"/><path d="m35.23 15.68.77 2.32-1 2h-6l-1-2 .77-2.32c.14-.4.52-.68.95-.68h4.56c.43 0 .81.28.95.68z" fill="#ffd15d"/><path d="m36 18-1 2h-3.52l1-2-.77-2.32c-.14-.4-.52-.68-.95-.68h3.52c.43 0 .81.28.95.68z" fill="#ffb000"/><path d="m15.23 15.68.77 2.32-1 2h-6l-1-2 .77-2.32c.14-.4.52-.68.95-.68h4.56c.43 0 .81.28.95.68z" fill="#ffd15d"/><path d="m16 18-1 2h-3.25l1-2-.77-2.32c-.14-.4-.52-.68-.95-.68h3.25c.43 0 .81.28.95.68z" fill="#ffb000"/><path d="m60 33v3h-16v-3c0-1.26.59-2.44 1.6-3.2l2.06-1.55c.22-.16.36-.4.39-.67l.95-7.58h6l.95 7.58c.03.27.17.51.39.67l2.06 1.55c1.01.76 1.6 1.94 1.6 3.2z" fill="#80a53f"/><path d="m40 33v3h-16v-3c0-1.26.59-2.44 1.6-3.2l2.06-1.55c.22-.16.36-.4.39-.67l.95-7.58h6l.95 7.58c.03.27.17.51.39.67l2.06 1.55c1.01.76 1.6 1.94 1.6 3.2z" fill="#80a53f"/><path d="m20 33v3h-16v-3c0-1.26.59-2.44 1.6-3.2l2.06-1.55c.22-.16.36-.4.39-.67l.95-7.58h6l.95 7.58c.03.27.17.51.39.67l2.06 1.55c1.01.76 1.6 1.94 1.6 3.2z" fill="#80a53f"/><path d="m60 33v3h-3.64v-1c0-1.257-.591-2.441-1.595-3.196l-2.065-1.554c-.22-.16-.36-.4-.39-.67l-.751-5.988c-.114-.91-.887-1.592-1.803-1.592h-1.006l.25-2h6l.95 7.58c.03.27.17.51.39.67l2.065 1.554c1.004.755 1.595 1.939 1.595 3.196z" fill="#24725f"/><path d="m40 33.006v2.994h-3.64v-1c0-1.257-.591-2.441-1.595-3.196l-2.065-1.554c-.22-.16-.36-.4-.39-.67l-.84-6.704c-.063-.501-.488-.876-.993-.876h-1.727l.25-2h6l.95 7.58c.03.27.17.51.39.67l2.06 1.55c1.007.758 1.6 1.945 1.6 3.206z" fill="#24725f"/><path d="m20 33v3h-3.64v-1c0-1.257-.591-2.441-1.595-3.196l-2.065-1.554c-.22-.16-.36-.4-.39-.67l-.84-6.704c-.063-.501-.488-.876-.993-.876h-1.727l.25-2h6l.95 7.58c.03.27.17.51.39.67l2.065 1.554c1.004.755 1.595 1.939 1.595 3.196z" fill="#24725f"/><path d="m51.92 45c.84 0 1.3.97.78 1.62l-2.2 2.76c-.29.36-.29.88 0 1.24l2.2 2.76c.52.65.06 1.62-.78 1.62h-6.92v-10z" fill="#ffb000"/><path d="m19 45v10h-6.92c-.84 0-1.3-.97-.78-1.62l2.2-2.76c.29-.36.29-.88 0-1.24l-2.2-2.76c-.52-.65-.06-1.62.78-1.62z" fill="#ffb000"/><path d="m15 20 1-2-.77-2.32c-.14-.4-.52-.68-.95-.68h-4.56c-.43 0-.81.28-.95.68l-.77 2.32 1 2-.95 7.58c-.03.27-.17.51-.39.67l-2.06 1.55c-1.01.76-1.6 1.94-1.6 3.2v3h-3l3-25v-8c0-1.1.9-2 2-2h52c1.1 0 2 .9 2 2v8l3 25h-3v-3c0-1.26-.59-2.44-1.6-3.2l-2.06-1.55c-.22-.16-.36-.4-.39-.67l-.95-7.58 1-2-.77-2.32c-.14-.4-.52-.68-.95-.68h-4.56c-.43 0-.81.28-.95.68l-.77 2.32 1 2-.95 7.58c-.03.27-.17.51-.39.67l-2.06 1.55c-1.01.76-1.6 1.94-1.6 3.2v3h-4v-3c0-1.26-.59-2.44-1.6-3.2l-2.06-1.55c-.22-.16-.36-.4-.39-.67l-.95-7.58 1-2-.77-2.32c-.14-.4-.52-.68-.95-.68h-4.56c-.43 0-.81.28-.95.68l-.77 2.32 1 2-.95 7.58c-.03.27-.17.51-.39.67l-2.06 1.55c-1.01.76-1.6 1.94-1.6 3.2v3h-4v-3c0-1.26-.59-2.44-1.6-3.2l-2.06-1.55c-.22-.16-.36-.4-.39-.67zm31-10v-4c0-.55-.45-1-1-1h-26c-.55 0-1 .45-1 1v4c0 .55.45 1 1 1h26c.55 0 1-.45 1-1z" fill="#a67c52"/><g fill="#694a2b"><path d="m5.36 30c-.86.76-1.36 1.84-1.36 3v3h-3l.72-6z"/><path d="m25.36 30c-.86.76-1.36 1.84-1.36 3v3h-4v-3c0-1.16-.5-2.24-1.36-3z"/><path d="m45.64 29.77-.04.03c-1.01.76-1.6 1.94-1.6 3.2v3h-4v-3c0-1.16-.5-2.24-1.36-3h4.73c.78 0 1.54-.08 2.27-.23z"/><path d="m60 36v-3c0-1.26-.59-2.44-1.6-3.2l-2.06-1.55c-.22-.16-.36-.4-.39-.67l-.95-7.58 1-2-.77-2.32c-.06-.17-.16-.31-.29-.42v-14.26h3.06c1.1 0 2 .9 2 2v8l3 25z"/></g><path d="m4 41.172v-1.416c0-.567.46-1.027 1.027-1.027h1.748c.968 0 1.399 1.216.647 1.825l-1.748 1.416c-.672.544-1.674.066-1.674-.798z" fill="#8c6239"/><path d="m6.278 5.707v-1.416c0-.567.46-1.027 1.027-1.027h1.748c.968 0 1.399 1.216.647 1.825l-1.748 1.416c-.672.544-1.674.066-1.674-.798z" fill="#8c6239"/><path d="m7.071 31.682c.258-.51.662-1.049 1.285-1.375.597-.313 1.317.133 1.317.807v.984c.001.498-.403.902-.901.902h-.897c-.677 0-1.109-.714-.804-1.318z" fill="#cccb6a"/><path d="m27.499 31.682c.258-.51.662-1.049 1.285-1.375.597-.313 1.317.133 1.317.807v.984c0 .498-.404.902-.902.902h-.897c-.677 0-1.109-.714-.803-1.318z" fill="#cccb6a"/><path d="m47.499 31.682c.258-.51.662-1.049 1.285-1.375.597-.313 1.317.133 1.317.807v.984c0 .498-.404.902-.902.902h-.897c-.677 0-1.109-.714-.803-1.318z" fill="#cccb6a"/><g fill="#36103d"><path d="m61 10.94v-7.94c0-1.654-1.346-3-3-3h-52c-1.654 0-3 1.346-3 3v7.94l-2.993 24.941c-.005.039-.007.079-.007.119v25c0 1.654 1.346 3 3 3h58c1.654 0 3-1.346 3-3v-25c0-.04-.002-.08-.007-.119zm-55-8.94h52c.551 0 1 .449 1 1v7h-8c-.552 0-1 .448-1 1s.448 1 1 1h8.113l2.76 23h-.873v-2c0-1.565-.748-3.061-2-4l-2.061-1.545-.81-6.481c.489-.066.871-.468.871-.974 0-.353-.193-.648-.469-.826l.364-.727c.119-.237.138-.512.054-.764l-.772-2.316c-.273-.818-1.036-1.367-1.898-1.367h-4.559c-.862 0-1.625.549-1.897 1.367l-.772 2.316c-.084.252-.064.526.054.764l.364.727c-.276.178-.469.473-.469.826 0 .506.382.908.87.974l-.81 6.481-2.06 1.545c-1.252.939-2 2.435-2 4v2h-2v-2c0-1.565-.748-3.061-2-4l-2.061-1.545-.81-6.481c.489-.066.871-.468.871-.974 0-.353-.193-.648-.469-.826l.364-.727c.119-.237.138-.512.054-.764l-.772-2.316c-.273-.818-1.036-1.367-1.898-1.367h-4.559c-.862 0-1.625.549-1.897 1.367l-.772 2.316c-.084.252-.064.526.054.764l.364.727c-.276.178-.469.473-.469.826 0 .506.382.908.87.974l-.81 6.481-2.06 1.545c-1.252.939-2 2.435-2 4v2h-2v-2c0-1.565-.748-3.061-2-4l-2.061-1.545-.81-6.481c.489-.066.871-.468.871-.974 0-.353-.193-.648-.469-.826l.364-.727c.119-.237.138-.512.054-.764l-.772-2.316c-.273-.818-1.036-1.367-1.898-1.367h-4.558c-.862 0-1.625.549-1.897 1.367l-.772 2.316c-.084.252-.064.526.054.764l.364.727c-.277.178-.47.473-.47.826 0 .506.382.908.87.974l-.81 6.481-2.06 1.545c-1.252.939-2 2.435-2 4v2h-.873l2.76-23h8.113c.552 0 1-.448 1-1s-.448-1-1-1h-8v-7c0-.551.449-1 1-1zm43.08 15.923.641-1.923h4.559l.641 1.923-.539 1.077h-4.764zm-.82 11.132c.432-.324.718-.817.785-1.352l.838-6.703h4.235l.75 6h-2.868c-.552 0-1 .448-1 1s.448 1 1 1h3.68c.021.017.038.038.059.055l2.061 1.545c.751.563 1.2 1.461 1.2 2.4v2h-14v-2c0-.939.449-1.837 1.2-2.4zm-19.18-11.132.641-1.923h4.559l.641 1.923-.539 1.077h-4.764zm-.82 11.132c.432-.324.718-.817.785-1.352l.838-6.703h4.235l.75 6h-2.868c-.552 0-1 .448-1 1s.448 1 1 1h3.68c.021.017.038.038.059.055l2.061 1.545c.751.563 1.2 1.461 1.2 2.4v2h-14v-2c0-.939.449-1.837 1.2-2.4zm-19.18-11.132.641-1.923h4.559l.641 1.923-.539 1.077h-4.764zm-.82 11.132c.432-.324.718-.817.785-1.352l.838-6.703h4.235l.75 6h-2.868c-.552 0-1 .448-1 1s.448 1 1 1h3.68c.021.017.038.038.059.055l2.061 1.545c.751.563 1.2 1.461 1.2 2.4v2h-14v-2c0-.939.449-1.837 1.2-2.4zm52.74 32.945h-58c-.551 0-1-.449-1-1v-24h60v24c0 .551-.449 1-1 1z"/><path d="m19 12h26c1.103 0 2-.897 2-2v-4c0-1.103-.897-2-2-2h-26c-1.103 0-2 .897-2 2v4c0 1.103.897 2 2 2zm0-6h26l.001 4h-26.001z"/><path d="m40 44h-16c-1.103 0-2 .897-2 2v8c0 1.103.897 2 2 2h16c1.103 0 2-.897 2-2v-8c0-1.103-.897-2-2-2zm0 10-16 .001v-8.001h16z"/><path d="m53.722 45.134c-.336-.699-1.027-1.134-1.803-1.134h-5.919c0-2.206-1.794-4-4-4h-20c-2.206 0-4 1.794-4 4h-5.919c-.776 0-1.467.435-1.803 1.134s-.244 1.51.241 2.115l2.2 2.751-2.2 2.75c-.485.606-.577 1.417-.241 2.116s1.027 1.134 1.803 1.134h5.919c0 2.206 1.794 4 4 4h20c2.206 0 4-1.794 4-4h5.919c.776 0 1.467-.435 1.803-1.134s.244-1.51-.241-2.115l-2.2-2.751 2.2-2.75c.485-.606.577-1.417.241-2.116zm-41.641 8.866 2.2-2.75c.589-.736.589-1.763 0-2.499l-2.2-2.751h5.919v8zm31.919 2c0 1.103-.897 2-2 2h-20c-1.103 0-2-.897-2-2v-12c0-1.103.897-2 2-2h20c1.103 0 2 .897 2 2zm5.719-7.25c-.589.736-.589 1.763 0 2.499l2.2 2.751h-5.919v-8h5.919z"/><path d="m28 50h8c.552 0 1-.448 1-1s-.448-1-1-1h-8c-.552 0-1 .448-1 1s.448 1 1 1z"/><path d="m34 51h-4c-.552 0-1 .448-1 1s.448 1 1 1h4c.552 0 1-.448 1-1s-.448-1-1-1z"/></g></svg>